<svg width="200" height="200" viewBox="0 0 200 200" fill="none" xmlns="http://www.w3.org/2000/svg">
<path fill-rule="evenodd" clip-rule="evenodd" d="M13.3249 131.789C12.2101 116.938 13.6905 100.589 18.1458 83.9618C18.3165 83.3251 18.4907 82.6909 18.6684 82.0592C24.8019 62.6013 34.8182 46.5416 46.1822 35.9222C58.6877 24.2359 72.0703 19.7226 83.6671 22.83C89.8712 24.4923 95.4274 28.2992 100.017 33.9872C99.2811 33.6788 98.5248 33.4196 97.7481 33.2115C79.2658 28.2591 56.2757 54.1259 46.3984 90.9865C36.5211 127.847 43.4969 161.743 61.9792 166.696C68.614 168.473 75.8297 166.28 82.8112 161.031C81.8256 162.058 80.8276 163.043 79.8191 163.986C67.3135 175.672 53.931 180.186 42.3342 177.078C30.7373 173.971 21.4046 163.371 16.418 146.998C14.9869 142.299 13.9435 137.197 13.3249 131.789ZM39.4526 188.376C56.3047 192.828 73.6255 185.731 87.7793 172.504C102.044 159.174 113.86 139.022 120.22 115.286C126.581 91.5501 126.424 68.1896 120.736 49.5136C115.077 30.9325 103.58 16.0955 86.6848 11.5685C80.5041 9.91241 74.2591 9.8124 68.1291 11.0009C76.4845 6.30177 85.164 3.82519 93.6932 4.00959H136.216C140.009 3.92808 143.78 4.36465 147.486 5.35762C180.45 14.1903 195.823 63.7032 181.824 115.948C169.234 162.929 137.179 196.121 106.877 195.909V195.916H62.5734V195.909C59.1782 195.885 55.8051 195.442 52.4837 194.552C47.7686 193.289 43.4134 191.193 39.4526 188.376Z" fill="url(#paint0_linear_301_28)"/>
<path d="M104.375 93.0539H89.8842C87.7006 93.0539 86.1126 91.0689 86.5096 89.0839L92.6633 55.5375C92.8618 54.545 91.4723 53.9495 90.8767 54.7435L55.3443 104.567C53.7562 106.75 55.3443 109.926 58.1234 109.926H72.6142C74.7978 109.926 76.3858 111.911 75.9888 113.896L69.8352 147.443C69.6367 148.435 71.0262 149.031 71.6217 148.237L107.154 98.4134C108.742 96.2299 107.154 93.0539 104.375 93.0539Z" fill="url(#paint1_linear_301_28)"/>
<defs>
<linearGradient id="paint0_linear_301_28" x1="150.352" y1="13.9253" x2="67.4845" y2="198.09" gradientUnits="userSpaceOnUse">
<stop stop-color="#F7B6FF"/>
<stop offset="0.450182" stop-color="#9086FF"/>
<stop offset="1" stop-color="#25A4FF"/>
</linearGradient>
<linearGradient id="paint1_linear_301_28" x1="96.6089" y1="59.2488" x2="44.9503" y2="130.555" gradientUnits="userSpaceOnUse">
<stop stop-color="#F7B6FF"/>
<stop offset="0.450182" stop-color="#9086FF"/>
<stop offset="1" stop-color="#25A4FF"/>
</linearGradient>
</defs>
</svg>
